<svg xmlns="http://www.w3.org/2000/svg" viewBox="0 0 1082.97 1035.94"><defs><style>.cls-1{fill:none;stroke:#fff;stroke-miterlimit:10;stroke-width:3px;}</style></defs><title>Asset 3bg-intruder</title><g id="Layer_2" data-name="Layer 2"><g id="Layer_1-2" data-name="Layer 1"><path class="cls-1" d="M263.92,636.39c19.54,0,19.54,24.73,39.09,24.73s19.54-24.73,39.09-24.73,19.54,24.73,39.09,24.73,19.55-24.73,39.09-24.73,19.55,24.73,39.1,24.73"/><path class="cls-1" d="M476.27,264.39c-8.86,17.42-30.91,6.2-39.77,23.62s13.18,28.64,4.31,46.06-30.9,6.2-39.77,23.62,13.18,28.64,4.31,46.06-30.91,6.2-39.77,23.63"/><path class="cls-1" d="M459.83,260.3c-8.87,17.42-30.91,6.2-39.77,23.62s13.18,28.64,4.31,46.06-30.91,6.2-39.77,23.62,13.18,28.64,4.31,46.06-30.91,6.2-39.77,23.62"/><path class="cls-1" d="M989.71,515.18c11,16.13-9.36,30.1,1.69,46.23s31.45,2.15,42.49,18.27-9.36,30.1,1.69,46.23,31.45,2.15,42.5,18.28-9.36,30.1,1.68,46.23"/><path class="cls-1" d="M972.75,526.8c11,16.13-9.36,30.1,1.68,46.23s31.45,2.15,42.5,18.27-9.36,30.1,1.68,46.23,31.45,2.15,42.5,18.28-9.36,30.1,1.69,46.23"/><path class="cls-1" d="M113.94,32.74c19.54-.09,19.67,24.64,39.21,24.54s19.42-24.83,39-24.93S211.79,57,231.33,56.89s19.43-24.83,39-24.93S290,56.6,309.52,56.5"/><path class="cls-1" d="M114,53.31c19.55-.1,19.67,24.63,39.21,24.53s19.43-24.83,39-24.93,19.67,24.64,39.21,24.54,19.43-24.83,39-24.93,19.67,24.64,39.21,24.54"/><polyline class="cls-1" points="553.36 831.09 570.17 841.73 586.99 831.09 603.8 841.73 620.62 831.09 637.43 841.73"/><polyline class="cls-1" points="594.02 98.22 589.31 117.55 604.76 130.09 600.04 149.42 615.49 161.96 610.78 181.29"/><polyline class="cls-1" points="519.96 820.45 536.77 831.09 553.58 820.45 570.4 831.09 587.21 820.45 604.03 831.09"/><polyline class="cls-1" points="756.33 29.36 785.92 48.08 815.51 29.36 845.1 48.08 874.7 29.36 904.29 48.08"/><polyline class="cls-1" points="697.54 10.64 727.13 29.36 756.72 10.64 786.31 29.36 815.91 10.64 845.5 29.36"/><polyline class="cls-1" points="396.81 126.81 436.87 119.86 447.74 80.68 487.8 73.72 498.68 34.54 538.74 27.58"/><polyline class="cls-1" points="468.23 100.71 508.29 93.76 519.16 54.58 559.22 47.62 570.1 8.44 610.16 1.48"/><line class="cls-1" x1="733.67" y1="148.27" x2="761.04" y2="198.83"/><line class="cls-1" x1="772.64" y1="159.87" x2="722.07" y2="187.23"/><line class="cls-1" x1="178.92" y1="885.55" x2="225.75" y2="972.1"/><line class="cls-1" x1="245.61" y1="905.41" x2="159.06" y2="952.24"/><line class="cls-1" x1="553.12" y1="439.81" x2="580.48" y2="490.38"/><line class="cls-1" x1="592.08" y1="451.41" x2="541.51" y2="478.78"/><polyline class="cls-1" points="688.06 980.1 741.71 989.48 773.17 945.01 826.83 954.38"/><polyline class="cls-1" points="732.49 969.98 763.94 925.5 817.6 934.88"/><circle class="cls-1" cx="992.73" cy="263.96" r="23.35" transform="translate(456.46 1140.09) rotate(-73.42)"/><circle class="cls-1" cx="1049.13" cy="831.09" r="23.35" transform="translate(-46.78 1599.44) rotate(-73.42)"/><rect class="cls-1" x="845.73" y="283.85" width="29" height="29" transform="translate(462.93 -520.89) rotate(45)"/><rect class="cls-1" x="372.55" y="22.98" width="29" height="29" transform="translate(139.87 -262.71) rotate(45)"/><rect class="cls-1" x="150.59" y="742.69" width="29" height="29" transform="translate(922.28 592.1) rotate(90)"/><rect class="cls-1" x="865.58" y="910.83" width="29" height="29" transform="translate(1805.41 45.25) rotate(90)"/><rect class="cls-1" x="529.05" y="220" width="29" height="29" transform="translate(778.06 -309.05) rotate(90)"/><polygon class="cls-1" points="960.59 488.15 1007.85 478.7 1018.96 431.44 971.7 440.89 960.59 488.15"/><polygon class="cls-1" points="944.66 412.54 991.92 403.09 1018.96 431.44 971.7 440.89 944.66 412.54"/><polygon class="cls-1" points="933.55 459.8 944.66 412.54 971.7 440.89 960.59 488.15 933.55 459.8"/><polygon class="cls-1" points="358.25 818.57 405.51 809.12 416.62 761.86 369.36 771.3 358.25 818.57"/><polygon class="cls-1" points="342.33 742.95 389.59 733.5 416.62 761.86 369.36 771.3 342.33 742.95"/><polygon class="cls-1" points="331.21 790.21 342.33 742.95 369.36 771.3 358.25 818.57 331.21 790.21"/><polygon class="cls-1" points="560.5 683.38 607.76 673.93 618.87 626.67 571.61 636.12 560.5 683.38"/><polygon class="cls-1" points="544.58 607.77 591.84 598.32 618.87 626.67 571.61 636.12 544.58 607.77"/><polygon class="cls-1" points="533.46 655.03 544.58 607.77 571.61 636.12 560.5 683.38 533.46 655.03"/><polyline class="cls-1" points="199.6 327.78 162.25 290.6 175.77 239.66 226.65 225.91 264 263.09"/><polyline class="cls-1" points="264 263.09 213.13 276.85 175.86 239.58"/><line class="cls-1" x1="213.12" y1="276.84" x2="199.6" y2="327.78"/><polygon class="cls-1" points="87.65 215.84 124.84 253.19 175.77 239.66 189.53 188.79 152.35 151.44 101.41 164.96 87.65 215.84"/><polyline class="cls-1" points="277.71 212.25 264.23 263.15 226.88 225.97 240.41 175.03 277.71 212.25"/><polyline class="cls-1" points="152.29 151.2 189.47 188.56 240.41 175.03"/><polyline class="cls-1" points="87.65 215.84 125 253.02 111.48 303.96"/><polyline class="cls-1" points="148.71 341.26 199.6 327.78 162.42 290.43 111.48 303.96 148.71 341.26"/><polyline class="cls-1" points="152.35 151.44 138.59 202.31 175.86 239.58"/><line class="cls-1" x1="138.59" y1="202.31" x2="87.65" y2="215.84"/><polyline class="cls-1" points="813.78 776.93 846.99 749.5 887.35 764.54 894.51 807.01 861.3 834.45"/><polyline class="cls-1" points="861.3 834.45 854.14 791.97 887.41 764.61"/><line class="cls-1" x1="854.15" y1="791.97" x2="813.78" y2="776.93"/><polygon class="cls-1" points="913.72 694.75 880.39 722.03 887.35 764.54 927.64 779.76 960.97 752.48 954.01 709.97 913.72 694.75"/><polyline class="cls-1" points="901.56 849.63 861.23 834.63 894.44 807.2 934.8 822.23 901.56 849.63"/><polyline class="cls-1" points="961.16 752.45 927.84 779.73 934.8 822.23"/><polyline class="cls-1" points="913.72 694.75 880.51 722.18 840.15 707.15"/><polyline class="cls-1" points="806.85 734.47 813.78 776.93 847.11 749.65 840.15 707.15 806.85 734.47"/><polyline class="cls-1" points="960.97 752.48 920.68 737.25 887.41 764.61"/><line class="cls-1" x1="920.68" y1="737.26" x2="913.71" y2="694.75"/><polyline class="cls-1" points="33.84 656.71 42 614.42 82.71 600.35 115.25 628.56 107.09 670.85"/><polyline class="cls-1" points="107.09 670.85 74.55 642.64 82.8 600.36"/><line class="cls-1" x1="74.55" y1="642.64" x2="33.84" y2="656.71"/><polygon class="cls-1" points="58.65 529.73 50.29 571.98 82.71 600.35 123.48 586.45 131.83 544.2 99.41 515.84 58.65 529.73"/><polyline class="cls-1" points="147.81 656.95 107.15 671.03 115.31 628.74 156.02 614.67 147.81 656.95"/><polyline class="cls-1" points="131.96 544.05 123.61 586.3 156.02 614.67"/><polyline class="cls-1" points="58.65 529.73 50.48 572.02 9.78 586.1"/><polyline class="cls-1" points="1.47 628.36 33.84 656.71 42.19 614.46 9.78 586.1 1.47 628.36"/><polyline class="cls-1" points="131.83 544.2 91.06 558.09 82.8 600.36"/><line class="cls-1" x1="91.06" y1="558.09" x2="58.64" y2="529.73"/><polyline class="cls-1" points="720.23 603.59 728.39 561.29 769.09 547.22 801.64 575.43 793.48 617.72"/><polyline class="cls-1" points="793.48 617.72 760.93 589.51 769.19 547.24"/><line class="cls-1" x1="760.93" y1="589.51" x2="720.23" y2="603.59"/><polygon class="cls-1" points="745.03 476.6 736.68 518.86 769.09 547.22 809.86 533.32 818.22 491.07 785.8 462.71 745.03 476.6"/><polyline class="cls-1" points="834.2 603.82 793.54 617.91 801.7 575.62 842.41 561.54 834.2 603.82"/><polyline class="cls-1" points="818.35 490.92 809.99 533.18 842.41 561.54"/><polyline class="cls-1" points="745.03 476.6 736.87 518.89 696.16 532.97"/><polyline class="cls-1" points="687.86 575.23 720.23 603.59 728.58 561.33 696.16 532.97 687.86 575.23"/><polyline class="cls-1" points="818.22 491.07 777.45 504.96 769.19 547.24"/><line class="cls-1" x1="777.45" y1="504.96" x2="745.03" y2="476.6"/><polygon class="cls-1" points="259.11 503.39 173.93 418.24 290.51 387.02 259.11 503.39"/><polygon class="cls-1" points="250.38 470.69 206.69 427.01 266.51 411.02 250.38 470.69"/><polyline class="cls-1" points="259.11 503.39 256.34 513.79 171.16 428.63 173.93 418.24"/><line class="cls-1" x1="214.31" y1="434.63" x2="263.73" y2="421.42"/><polygon class="cls-1" points="659.41 443.85 574.23 358.7 690.81 327.48 659.41 443.85"/><polygon class="cls-1" points="650.67 411.15 606.98 367.48 666.8 351.49 650.67 411.15"/><polyline class="cls-1" points="659.41 443.85 656.63 454.25 571.46 369.1 574.23 358.7"/><line class="cls-1" x1="614.6" y1="375.1" x2="664.03" y2="361.88"/><polygon class="cls-1" points="715.84 890.5 595.4 890.52 655.76 786 715.84 890.5"/><polygon class="cls-1" points="686.54 873.55 624.76 873.56 655.76 819.95 686.54 873.55"/><polyline class="cls-1" points="715.84 890.5 721.23 899.81 600.79 899.83 595.4 890.52"/><line class="cls-1" x1="635.54" y1="873.56" x2="661.15" y2="829.27"/><polygon class="cls-1" points="498.69 1025.11 378.24 1025.13 438.6 920.62 498.69 1025.11"/><polygon class="cls-1" points="469.39 1008.16 407.61 1008.17 438.6 954.56 469.39 1008.16"/><polyline class="cls-1" points="498.69 1025.11 504.08 1034.42 383.63 1034.44 378.24 1025.13"/><line class="cls-1" x1="418.39" y1="1008.17" x2="443.99" y2="963.88"/><polygon class="cls-1" points="1014.15 196.32 904.11 86.31 1054.72 45.97 1014.15 196.32"/><polygon class="cls-1" points="1002.87 154.07 946.43 97.65 1023.71 76.99 1002.87 154.07"/><polyline class="cls-1" points="1014.15 196.32 1010.57 209.75 900.53 99.74 904.11 86.31"/><line class="cls-1" x1="956.27" y1="107.49" x2="1020.13" y2="90.42"/></g></g></svg>